<svg width="24" height="24" viewBox="0 0 24 24" fill="none" xmlns="http://www.w3.org/2000/svg">
<path d="M17.4118 2H6.64658C5.76983 2 5 2.77747 5 3.69774V20.8638C5 21.1719 5.07954 21.4286 5.20773 21.627C5.36103 21.8641 5.60786 22 5.87255 21.9999C6.1228 21.9999 6.38924 21.8798 6.63529 21.6533L11.4516 17.2453C11.6004 17.1083 11.8141 17.0299 12.0362 17.0299C12.2583 17.0299 12.4715 17.1083 12.6207 17.2457L17.421 21.6526C17.6679 21.8798 17.916 22 18.1658 22C18.5882 22 19 21.6488 19 20.8639V3.69774C19 2.77747 18.2885 2 17.4118 2Z" fill="#242424"/>
</svg>
