<svg width="19" height="19" viewBox="0 0 19 19" fill="none" xmlns="http://www.w3.org/2000/svg">
<path d="M18.2567 1.80243H6.93696C6.62575 0.846623 5.75148 0.156067 4.72355 0.156067C3.69563 0.156067 2.82136 0.846623 2.51015 1.80243H0.743219C0.332764 1.80243 0 2.14653 0 2.57096C0 2.9954 0.332764 3.3395 0.743219 3.3395H2.5102C2.82141 4.29531 3.69568 4.98586 4.7236 4.98586C5.75152 4.98586 6.6258 4.29531 6.93701 3.3395H18.2568C18.6672 3.3395 19 2.9954 19 2.57096C19 2.14653 18.6672 1.80243 18.2567 1.80243ZM4.72355 3.44879C4.25548 3.44879 3.87465 3.05499 3.87465 2.57096C3.87465 2.08694 4.25548 1.69314 4.72355 1.69314C5.19163 1.69314 5.57246 2.08694 5.57246 2.57096C5.57246 3.05499 5.19163 3.44879 4.72355 3.44879Z" fill="black"/>
<path d="M18.2567 8.38794H16.4898C16.1785 7.43213 15.3042 6.74158 14.2763 6.74158C13.2485 6.74158 12.3742 7.43213 12.063 8.38794H0.743219C0.332764 8.38794 0 8.73204 0 9.15648C0 9.58092 0.332764 9.92502 0.743219 9.92502H12.063C12.3742 10.8808 13.2485 11.5714 14.2764 11.5714C15.3043 11.5714 16.1786 10.8808 16.4898 9.92502H18.2568C18.6672 9.92502 19 9.58092 19 9.15648C19 8.73204 18.6672 8.38794 18.2567 8.38794ZM14.2764 10.0343C13.8083 10.0343 13.4275 9.6405 13.4275 9.15648C13.4275 8.67245 13.8083 8.27865 14.2764 8.27865C14.7445 8.27865 15.1253 8.67245 15.1253 9.15648C15.1253 9.6405 14.7445 10.0343 14.2764 10.0343Z" fill="black"/>
<path d="M18.2567 14.9734H10.1213C9.81005 14.0176 8.93577 13.3271 7.90785 13.3271C6.87993 13.3271 6.00566 14.0176 5.69445 14.9734H0.743219C0.332764 14.9734 0 15.3175 0 15.742C0 16.1664 0.332764 16.5105 0.743219 16.5105H5.69445C6.00566 17.4663 6.87993 18.1569 7.90785 18.1569C8.93577 18.1569 9.81005 17.4663 10.1213 16.5105H18.2568C18.6672 16.5105 19 16.1664 19 15.742C19 15.3175 18.6672 14.9734 18.2567 14.9734ZM7.90785 16.6199C7.43977 16.6199 7.05895 16.2261 7.05895 15.742C7.05895 15.258 7.43977 14.8642 7.90785 14.8642C8.37593 14.8642 8.75676 15.258 8.75676 15.742C8.75676 16.226 8.37593 16.6199 7.90785 16.6199Z" fill="black"/>
</svg>
