<svg width="24" height="24" viewBox="0 0 24 24" fill="none" xmlns="http://www.w3.org/2000/svg">
<path d="M22 12.6667C21.9123 12.6672 21.8253 12.6504 21.7441 12.6172C21.6629 12.584 21.589 12.5351 21.5267 12.4733L12 2.94001L2.47335 12.4733C2.34582 12.5826 2.18177 12.6396 2.01398 12.6331C1.8462 12.6267 1.68704 12.5571 1.56831 12.4384C1.44958 12.3197 1.38002 12.1605 1.37354 11.9927C1.36706 11.8249 1.42413 11.6609 1.53335 11.5333L11.5334 1.53334C11.6583 1.40917 11.8272 1.33948 12.0034 1.33948C12.1795 1.33948 12.3484 1.40917 12.4733 1.53334L22.4733 11.5333C22.5651 11.6269 22.6272 11.7455 22.6519 11.8742C22.6767 12.0029 22.6629 12.136 22.6124 12.2569C22.5619 12.3779 22.4769 12.4812 22.368 12.5541C22.2591 12.627 22.1311 12.6661 22 12.6667Z" fill="#999999"/>
<path d="M10 15.25H9.25V16V21.9166H5.33333C5.17862 21.9166 5.03025 21.8552 4.92086 21.7458C4.81146 21.6364 4.75 21.488 4.75 21.3333V13.5299L12.0015 6.25418L19.25 13.4845V21.3333C19.25 21.488 19.1885 21.6364 19.0791 21.7458C18.9698 21.8552 18.8214 21.9166 18.6667 21.9166H14.75V16V15.25H14H10Z" stroke="#999999" stroke-width="1.5"/>
</svg>
